<svg width="20" height="20" viewBox="0 0 20 20" fill="none" xmlns="http://www.w3.org/2000/svg">
<path fill-rule="evenodd" clip-rule="evenodd" d="M9.4 1.01207C8.53829 1.12175 7.69731 1.39438 7.02749 1.78125C6.64821 2.00031 6.5875 2.06248 6.5875 2.232C6.5875 2.33954 6.61094 2.39142 6.68631 2.4508C6.82064 2.55666 6.91604 2.54884 7.12701 2.41486C7.62854 2.09625 8.28261 1.83425 8.9242 1.69493C9.47504 1.57533 10.525 1.57533 11.0758 1.69493C12.1561 1.92951 13.0309 2.40644 13.8081 3.18444C14.5976 3.97484 15.0921 4.9031 15.3123 6.00797C15.4047 6.47172 15.4047 7.52559 15.3123 7.98934C15.1078 9.01526 14.6353 9.94359 13.9378 10.6895C13.7674 10.8718 13.4056 11.188 13.1267 11.3983C12.5339 11.8455 12.2745 12.137 12.0443 12.6143C11.8422 13.0335 11.8 13.2349 11.8 13.7806V14.2107H10.3921H8.98409L8.89206 14.3029C8.77026 14.4249 8.77026 14.5976 8.89206 14.7195L8.98409 14.8117H10.6H12.2159L12.3079 14.904C12.4297 15.0259 12.4297 15.1986 12.3079 15.3205L12.2159 15.4127H10H7.78409L7.69206 15.3205C7.50603 15.1342 7.63784 14.8117 7.9 14.8117C8.16216 14.8117 8.29398 14.4893 8.10794 14.3029C7.99233 14.1871 7.79804 14.1821 7.5625 14.2889C7.33589 14.3916 7.1959 14.5297 7.08936 14.7554C6.95999 15.0295 6.98493 15.3677 7.15191 15.6031C7.21926 15.698 7.21863 15.7029 7.11018 15.9183C6.99048 16.1559 6.97191 16.3431 7.0441 16.5844C7.09724 16.762 7.33105 17.0382 7.48105 17.1004C7.58215 17.1423 7.59137 17.1636 7.61387 17.4063C7.67718 18.0884 8.12538 18.6677 8.78125 18.9151C8.99418 18.9955 9.05961 19 10 19C10.9404 19 11.0058 18.9955 11.2188 18.9151C11.8756 18.6673 12.3228 18.0885 12.3863 17.4039C12.4041 17.2129 12.4254 17.1406 12.4641 17.1406C12.4934 17.1406 12.6061 17.0518 12.7144 16.9433C13.0205 16.6367 13.0798 16.2955 12.8918 15.9222L12.7836 15.7073L12.8823 15.5319C13.0122 15.3011 13.0189 14.945 12.8977 14.7143C12.8094 14.5461 12.6014 14.3448 12.4741 14.3043C12.3954 14.2793 12.3936 14.2643 12.4061 13.7282C12.4188 13.1812 12.4197 13.176 12.5569 12.896C12.7401 12.5222 12.996 12.2443 13.5138 11.8566C14.8168 10.8811 15.6283 9.58125 15.9131 8.01285C16.0126 7.46526 16.002 6.39096 15.8919 5.87177C15.36 3.36279 13.5372 1.55966 11.05 1.08212C10.7405 1.0227 9.6727 0.977362 9.4 1.01207ZM5.39571 3.15774C4.83632 3.75942 4.32974 4.82756 4.10845 5.87177C3.99764 6.39479 3.98646 7.46917 4.08621 8.01285C4.37586 9.59177 5.18129 10.8797 6.49315 11.8618C7.19961 12.3907 7.42574 12.7004 7.60011 13.3778C7.63435 13.5109 7.66559 13.5502 7.77269 13.595C7.93368 13.6624 8.07933 13.6076 8.15399 13.4515C8.21665 13.3205 8.13741 12.955 7.97553 12.6282C7.73103 12.1346 7.48428 11.8592 6.87348 11.3984C6.59448 11.188 6.23268 10.8718 6.06224 10.6895C5.3653 9.94419 4.89483 9.02048 4.68696 7.98934C4.58538 7.4854 4.59479 6.43427 4.70545 5.92105C4.86756 5.16919 5.15729 4.50147 5.57755 3.91099C5.69961 3.73951 5.84373 3.5363 5.8978 3.45937C6.0097 3.30021 6.00066 3.1799 5.86746 3.0556C5.72725 2.92473 5.58336 2.95591 5.39571 3.15774ZM10.7214 3.45835C10.5792 3.58396 7.6 8.41271 7.6 8.51762C7.6 8.57333 7.64058 8.65792 7.69206 8.70946C7.78379 8.80137 7.78653 8.80167 8.55456 8.80167C8.97831 8.80167 9.325 8.81437 9.325 8.82985C9.32504 8.84532 9.20395 9.4647 9.05594 10.2062C8.80896 11.4434 8.79134 11.5624 8.84144 11.6519C8.91048 11.775 9.06614 11.8333 9.19964 11.7858C9.2785 11.7578 9.62241 11.2332 10.8483 9.27121C11.907 7.5766 12.3976 6.75882 12.3986 6.68707C12.4002 6.56443 12.2522 6.39765 12.1417 6.39765C11.9429 6.39765 11.8932 6.46489 10.8251 8.17764C10.2373 9.12017 9.75194 9.87808 9.74654 9.86185C9.74114 9.84562 9.79596 9.53843 9.86838 9.17918C9.94075 8.81993 10 8.4943 10 8.45553C10 8.41677 9.95856 8.3436 9.90794 8.29289C9.817 8.20176 9.80789 8.20067 9.13608 8.20067C8.74094 8.20067 8.46149 8.18628 8.46876 8.1663C8.50229 8.07408 10.2449 5.31186 10.2534 5.33744C10.2588 5.35366 10.204 5.66089 10.1316 6.02014C10.0593 6.37939 10 6.70503 10 6.74379C10 6.85276 10.1684 6.99866 10.2942 6.99866C10.5438 6.99866 10.5428 7.00159 10.8852 5.28902C11.0583 4.42278 11.2 3.68324 11.2 3.64557C11.2 3.60785 11.1586 3.53554 11.1079 3.48483C10.9987 3.37538 10.8285 3.36369 10.7214 3.45835ZM1.61706 3.5224C1.50235 3.63727 1.49954 3.77321 1.60938 3.89585C1.70478 4.00241 3.06888 4.5195 3.25458 4.5195C3.47856 4.5195 3.59988 4.216 3.44688 4.03851C3.37217 3.95182 1.96851 3.43018 1.81004 3.43018C1.75285 3.43018 1.66919 3.47015 1.61706 3.5224ZM17.3227 3.70646C16.9261 3.85408 16.5773 4.0002 16.5476 4.03119C16.4948 4.08633 16.4745 4.17186 16.4832 4.30352C16.4899 4.40648 16.6269 4.5195 16.7448 4.5195C16.9325 4.5195 18.2957 4.00362 18.3906 3.89667C18.4958 3.77824 18.498 3.65736 18.3973 3.52916C18.2801 3.37996 18.136 3.40374 17.3227 3.70646ZM1.09206 6.48987C1.03401 6.54798 1 6.62498 1 6.69815C1 6.77133 1.03401 6.84833 1.09206 6.90644L1.18409 6.99866H2.05H2.91591L3.00794 6.90644C3.12974 6.78447 3.12974 6.61183 3.00794 6.48987L2.91591 6.39765H2.05H1.18409L1.09206 6.48987ZM16.9921 6.48987C16.934 6.54798 16.9 6.62498 16.9 6.69815C16.9 6.77133 16.934 6.84833 16.9921 6.90644L17.0841 6.99866H17.95H18.8159L18.9079 6.90644C18.966 6.84833 19 6.77133 19 6.69815C19 6.62498 18.966 6.54798 18.9079 6.48987L18.8159 6.39765H17.95H17.0841L16.9921 6.48987ZM2.40625 9.14372C1.66097 9.41695 1.525 9.50098 1.525 9.6882C1.525 9.81223 1.68284 9.96612 1.81004 9.96612C1.94556 9.96612 3.36468 9.44896 3.44391 9.37068C3.55019 9.26569 3.54708 9.06168 3.4375 8.95193C3.32039 8.83462 3.17628 8.86144 2.40625 9.14372ZM16.5625 8.95193C16.4529 9.06168 16.4498 9.26569 16.5561 9.37068C16.6353 9.44896 18.0544 9.96612 18.19 9.96612C18.3172 9.96612 18.475 9.81223 18.475 9.6882C18.475 9.49956 18.3403 9.41744 17.5776 9.14094C17.1768 8.99565 16.8013 8.8768 16.7432 8.8768C16.6851 8.8768 16.6038 8.91061 16.5625 8.95193ZM12.3079 16.106C12.366 16.1641 12.4 16.2411 12.4 16.3143C12.4 16.3874 12.366 16.4644 12.3079 16.5225L12.2159 16.6148H10H7.78409L7.69206 16.5225C7.63401 16.4644 7.6 16.3874 7.6 16.3143C7.6 16.2411 7.63401 16.1641 7.69206 16.106L7.78409 16.0138H10H12.2159L12.3079 16.106ZM11.7881 17.4049C11.7412 17.8018 11.4247 18.1919 11.0298 18.34C10.8218 18.4179 10.76 18.4219 9.92658 18.4108L9.04375 18.399L8.84485 18.2886C8.49595 18.095 8.25332 17.755 8.21144 17.401L8.18954 17.2158H10H11.8105L11.7881 17.4049Z" fill="white" stroke="white"/>
</svg>
