<svg width="20" height="18" viewBox="0 0 20 18" fill="none" xmlns="http://www.w3.org/2000/svg">
<path fill-rule="evenodd" clip-rule="evenodd" d="M6.90687 1.02462C6.7605 1.06016 6.6237 1.15642 6.51849 1.29785C6.44711 1.39381 6.44266 1.44895 6.44266 2.2396V3.07945L6.54316 3.21169C6.63105 3.32733 6.78591 3.41199 7.03506 3.48061C7.06448 3.48869 7.07471 4.25044 7.07184 6.21695L7.06783 8.94212L6.25878 10.1557L5.44974 11.3694L5.44022 9.0854C5.43496 7.82922 5.4386 6.78069 5.44823 6.7553C5.4579 6.72994 5.50027 6.70916 5.54234 6.70916C5.6698 6.70916 5.83098 6.60416 5.89733 6.47786C5.98084 6.31901 6.00908 5.73508 5.94447 5.50348C5.88394 5.28642 5.68013 5.06936 5.48652 5.01566C5.28477 4.95975 3.66363 4.96041 3.54102 5.01647C3.37201 5.09376 3.34446 5.36109 3.49281 5.48466C3.53256 5.51773 3.79271 5.53264 4.43259 5.53847C5.08928 5.54449 5.32945 5.55862 5.36402 5.59335C5.38965 5.61911 5.41708 5.75501 5.42499 5.89533L5.43937 6.15052L5.29507 6.18953C5.14988 6.22877 5.03444 6.32683 4.95788 6.47605C4.93059 6.52924 4.91651 6.86001 4.91651 7.4474V8.33811L4.83376 8.31147C4.34198 8.15313 3.95621 8.19864 3.42713 8.47733C3.01643 8.69373 2.58197 8.7365 2.22276 8.59596L2.12163 8.55643V7.57983C2.12163 6.97767 2.10659 6.56341 2.08239 6.49934C2.02333 6.34285 1.90352 6.2329 1.74561 6.19023L1.60388 6.15192L1.61451 5.84924L1.62517 5.54655L2.10324 5.5271C2.36618 5.5164 2.60911 5.49429 2.64309 5.47798C2.7408 5.43114 2.79177 5.24161 2.73735 5.12768C2.65652 4.95845 2.55458 4.9331 2.0113 4.94698C1.45788 4.96115 1.36664 4.99008 1.17148 5.21316C1.02045 5.38582 1 5.47178 1 5.93409C1 6.27261 1.01055 6.33864 1.08333 6.45612C1.16398 6.5863 1.35388 6.70916 1.47443 6.70916C1.52797 6.70916 1.53323 7.09578 1.53323 11.0381C1.53323 15.7997 1.52205 15.5533 1.76043 16.0448C1.91507 16.3636 2.28094 16.728 2.60775 16.8886C3.08847 17.1249 3.62465 17.1701 4.08735 17.0133C4.2778 16.9488 4.28663 16.949 4.47984 17.0231C4.67618 17.0984 4.7159 17.0989 10.543 17.0989H16.4086L16.6321 17.0042C17.0692 16.8191 17.7808 16.1848 18.1678 15.6352C18.5425 15.1032 18.8321 14.3798 18.9473 13.6879C19.0398 13.1332 19.0078 12.3295 18.8726 11.8062C18.5156 10.4243 17.6105 9.29345 16.376 8.68675C16.0197 8.51162 15.9052 8.41769 15.8411 8.24769C15.8153 8.17959 15.8018 7.55968 15.8018 6.44841C15.8018 4.8584 15.8058 4.75302 15.8662 4.75287C15.9706 4.75265 16.1647 4.61521 16.2433 4.48577C16.3078 4.37962 16.3164 4.29916 16.3165 3.80145C16.3167 3.18785 16.2899 3.06853 16.1162 2.90761L16.0166 2.81533L14.3465 2.80504C12.4984 2.79363 12.5254 2.79053 12.3803 3.02937C12.3164 3.13455 12.3086 3.21634 12.3097 3.77495C12.3104 4.19663 12.3255 4.4286 12.3555 4.48234C12.4155 4.5897 12.5678 4.70596 12.6881 4.73627L12.7863 4.76103V6.52366C12.7863 8.26075 12.7852 8.2877 12.7087 8.38521C12.6661 8.43965 12.4551 8.57289 12.2399 8.68132C12.0246 8.78972 11.6942 8.98977 11.5055 9.12581C11.3169 9.26189 11.158 9.36756 11.1524 9.36066C11.1469 9.35376 11.0819 9.25698 11.0082 9.14559L10.874 8.94311V6.20699V3.4709L11.0042 3.44968C11.1978 3.41816 11.3817 3.28787 11.4656 3.12285C11.5346 2.98714 11.5392 2.91931 11.5288 2.19166L11.5176 1.40684L11.4145 1.27138C11.2044 0.995089 11.313 1.00756 9.05366 1.00063C7.94123 0.99723 6.97516 1.00801 6.90687 1.02462ZM10.8832 1.60969L10.9843 1.61581V2.26005V2.90425L10.8464 2.92886C10.6525 2.96348 10.4874 3.07295 10.3886 3.2324C10.3048 3.36759 10.3039 3.3828 10.2928 4.74398L10.2815 6.11904L10.2008 6.07327C10.1508 6.04489 9.97355 6.02758 9.734 6.02765C9.34944 6.0278 9.34591 6.02861 8.86979 6.22906C8.43662 6.41142 8.36583 6.43043 8.11591 6.43135C7.96421 6.43191 7.79457 6.41958 7.73897 6.40397L7.63784 6.37559V4.90235C7.63784 3.95333 7.62394 3.39217 7.59882 3.32522C7.53182 3.14692 7.34974 2.99024 7.15498 2.94337L6.97589 2.90026V2.26038V1.6205L7.09541 1.60851C7.21327 1.59669 10.6868 1.59777 10.8832 1.60969ZM15.6906 3.72882L15.6898 4.14403L15.5055 4.22531C15.3518 4.29307 15.3089 4.33456 15.247 4.47481C15.1754 4.63735 15.1733 4.70541 15.184 6.49731C15.1947 8.30135 15.1972 8.3562 15.2736 8.52217C15.4097 8.8174 15.5802 8.96825 16.0309 9.1918C16.7406 9.54391 17.2717 9.99965 17.68 10.607C17.8694 10.8886 18.142 11.4223 18.1119 11.4524C18.103 11.4614 17.9322 11.41 17.7323 11.3383C17.1508 11.1297 16.9154 11.0888 16.2983 11.0888C15.4983 11.0888 14.9635 11.2319 14.2601 11.6345C13.7965 11.8998 13.5433 12.0092 13.1189 12.1279C12.7972 12.2179 12.7127 12.226 12.106 12.2246C11.5043 12.2233 11.4117 12.2142 11.0887 12.1245C10.641 12.0002 10.3224 11.8605 10.3224 11.7883C10.3224 11.7579 10.3658 11.6117 10.4189 11.4633C10.7799 10.454 11.5097 9.66113 12.525 9.17519C12.9055 8.99309 13.0423 8.89288 13.1654 8.70627C13.3679 8.39909 13.3748 8.32405 13.3739 6.41641C13.3731 4.76494 13.3689 4.65149 13.3025 4.50467C13.2315 4.34781 13.0481 4.1998 12.9242 4.19954C12.8665 4.1994 12.8598 4.15363 12.8598 3.7565V3.3136H14.2757H15.6915L15.6906 3.72882ZM10.1342 6.65638L10.2828 6.71603L10.2934 7.92832L10.304 9.14058L10.5362 9.4791C10.664 9.6653 10.7591 9.83655 10.7478 9.85966C10.7364 9.8828 10.638 10.0152 10.5292 10.1539C10.3032 10.4419 10.0066 10.9946 9.86708 11.3879C9.59855 12.1447 9.53056 13.1314 9.69362 13.9039C9.88599 14.815 10.2848 15.5612 10.9425 16.2407L11.2551 16.5637H8.0136C4.78096 16.5637 4.77158 16.5635 4.55961 16.4839C4.26927 16.3748 3.96467 16.0691 3.85603 15.7777C3.75457 15.5056 3.74939 15.122 3.84383 14.8755C3.88086 14.7789 4.74554 13.4459 5.7653 11.9132L7.61945 9.12666L7.63022 8.04347L7.641 6.96032L7.73808 6.98476C7.91585 7.02957 8.42551 7.00738 8.63075 6.94597C8.742 6.91264 8.93231 6.83476 9.05366 6.77287C9.17502 6.71097 9.34051 6.63823 9.42141 6.61121C9.59852 6.55201 9.92603 6.57279 10.1342 6.65638ZM8.43717 7.87886C8.30162 7.91433 8.26301 8.08038 8.26301 8.62803C8.26301 9.24388 8.28691 9.18191 7.73124 10.0077C7.51806 10.3245 7.34364 10.6149 7.34364 10.653C7.34364 10.6911 7.37795 10.766 7.41987 10.8195C7.51104 10.9358 7.69954 10.9514 7.81546 10.8521C7.9452 10.741 8.64123 9.69125 8.73924 9.45884C8.8268 9.25126 8.83265 9.19841 8.83283 8.616C8.83301 8.00741 8.83121 7.99317 8.74619 7.92396C8.66253 7.85587 8.57423 7.84299 8.43717 7.87886ZM4.74183 8.89606L4.87973 8.95681V10.602V12.2472L4.13144 13.3641C3.68672 14.0279 3.34946 14.5704 3.30015 14.7012C3.09009 15.2585 3.18118 15.8678 3.56147 16.4492L3.64351 16.5746L3.38046 16.5557C2.88331 16.52 2.44973 16.209 2.22066 15.7237L2.10324 15.4749L2.09287 12.3257L2.0825 9.17641L2.29513 9.2069C2.76997 9.27499 3.1543 9.21384 3.61101 8.99755C3.77281 8.92093 3.93003 8.84856 3.96036 8.83671C4.06822 8.7946 4.60381 8.83531 4.74183 8.89606ZM2.71002 9.88328C2.63909 9.95448 2.63647 10.0063 2.63647 11.3347V12.7123L2.72157 12.7926C2.83465 12.8992 3.00566 12.8969 3.10815 12.7875C3.18725 12.7029 3.1881 12.6877 3.1881 11.336V9.96998L3.103 9.8897C2.99466 9.78758 2.80843 9.78451 2.71002 9.88328ZM16.9178 11.6734C17.0919 11.7039 17.4814 11.8216 17.7834 11.9349C18.2162 12.0974 18.3376 12.1579 18.357 12.2209C18.4085 12.3882 18.4218 13.2385 18.3776 13.542C18.2935 14.1194 18.0593 14.7333 17.7343 15.2284C17.3749 15.7759 16.7016 16.3953 16.3562 16.4961C16.2255 16.5343 15.7525 16.5452 14.2381 16.5452H12.2883L12.0354 16.4203C11.8464 16.3269 11.6875 16.2012 11.4057 15.922C10.7314 15.2539 10.3516 14.5325 10.1926 13.6171C10.1361 13.292 10.1195 12.5171 10.1674 12.4415C10.1879 12.4092 10.2751 12.426 10.499 12.5055C11.3955 12.824 12.344 12.8672 13.2497 12.631C13.6969 12.5144 13.8624 12.4461 14.5244 12.1046C15.0464 11.8353 15.3977 11.7118 15.8386 11.6425C16.0661 11.6067 16.629 11.6228 16.9178 11.6734ZM6.80551 12.5323C6.55964 12.7322 6.60553 13.146 6.88671 13.2639C7.22041 13.4039 7.54682 13.0566 7.40399 12.7135C7.37508 12.6441 7.3129 12.5602 7.26579 12.5271C7.15359 12.4482 6.90551 12.451 6.80551 12.5323ZM16.7028 12.7608C16.3924 12.8913 16.2576 13.3484 16.4368 13.6629C16.5492 13.8603 16.6831 13.9504 16.8942 13.9707C17.1252 13.993 17.3068 13.9165 17.4405 13.7405C17.6604 13.4512 17.5723 12.9551 17.2725 12.7937C17.1392 12.722 16.8368 12.7045 16.7028 12.7608ZM11.0331 13.4111C10.9473 13.4972 10.9404 13.5251 10.961 13.7017C11.0506 14.4663 11.5541 15.2938 12.0949 15.565C12.2187 15.6271 12.3434 15.6779 12.3721 15.6779C12.4565 15.6779 12.6392 15.4697 12.6392 15.3734C12.6392 15.2738 12.5404 15.1758 12.3345 15.0712C12.0054 14.9041 11.7109 14.4209 11.5673 13.8124C11.4546 13.3352 11.2568 13.1866 11.0331 13.4111ZM5.87342 14.13C5.54521 14.2687 5.40888 14.709 5.58857 15.05C5.69341 15.2489 5.8646 15.3457 6.11169 15.3457C6.49804 15.3457 6.7373 15.0761 6.70979 14.6717C6.69449 14.4467 6.62672 14.3201 6.45112 14.1886C6.3384 14.1041 6.01284 14.0711 5.87342 14.13ZM15.9237 14.8092C15.7124 14.9014 15.6219 15.2279 15.7542 15.4205C15.8539 15.5658 15.9199 15.6016 16.0897 15.6029C16.5096 15.606 16.6432 14.9948 16.2623 14.8134C16.1153 14.7434 16.0756 14.7429 15.9237 14.8092Z" fill="white" stroke="white"/>
</svg>
