<svg width="20" height="20" viewBox="0 0 20 20" fill="none" xmlns="http://www.w3.org/2000/svg">
<path fill-rule="evenodd" clip-rule="evenodd" d="M1.64441 0.957944C1.33239 1.06952 1.1173 1.29923 1.03353 1.61032C1.00565 1.71389 0.994999 4.56683 1.00217 10.0008L1.01307 18.2343L1.10334 18.402C1.20791 18.5964 1.33101 18.7169 1.53716 18.8269C1.67901 18.9026 1.96193 18.9052 10.0065 18.9052H18.3292L18.4969 18.8149C18.6912 18.7104 18.8117 18.5872 18.9217 18.3811C18.9974 18.2392 19 17.9563 19 9.91088C19 1.86551 18.9974 1.58256 18.9217 1.4407C18.8117 1.23453 18.6912 1.11141 18.4969 1.00684L18.3292 0.916558L10.0694 0.90771C3.0531 0.900163 1.78483 0.907752 1.64441 0.957944ZM9.67112 9.57543H1.66295V5.65483C1.66295 1.79012 1.66416 1.73301 1.7468 1.65036C1.82944 1.56771 1.88655 1.5665 5.75089 1.5665H9.67112V9.57543ZM18.2663 1.65036C18.3489 1.73301 18.3501 1.79012 18.3501 5.65483V9.57543H10.342V1.5665H14.2622C18.1265 1.5665 18.1836 1.56771 18.2663 1.65036ZM5.33861 3.60718C5.32323 3.62253 5.31065 3.98063 5.31065 4.40296V5.17077L3.73836 5.19358L3.71388 5.84352H5.31065V7.43692H5.98149V5.84352H7.57474V5.17262H5.98149V3.57921H5.67403C5.5049 3.57921 5.35396 3.59179 5.33861 3.60718ZM12.3964 5.84352H16.2573L16.2328 5.19358L12.3964 5.17178V5.84352ZM9.67112 18.2553H5.75089C1.88655 18.2553 1.82944 18.2541 1.7468 18.1714C1.66416 18.0888 1.66295 18.0317 1.66295 14.1669V10.2463H9.67112V18.2553ZM18.3501 14.1741C18.3501 17.7701 18.3443 18.1084 18.2807 18.1786C18.2144 18.2518 18.0353 18.2553 14.2767 18.2553H10.342V10.2463H18.3501V14.1741ZM4.28585 12.8734L4.0786 13.1014L5.20465 14.2298L4.07596 15.361L4.28292 15.5711C4.39675 15.6868 4.50975 15.7813 4.53402 15.7813C4.55826 15.7813 4.82286 15.536 5.12201 15.2362L5.6659 14.691L6.80105 15.8241L7.25827 15.3612L6.12941 14.2298L7.25827 13.0985L6.80105 12.6356L5.6659 13.7686L5.10101 13.2025C4.79033 12.8912 4.52647 12.6385 4.51461 12.641C4.50274 12.6434 4.39981 12.7481 4.28585 12.8734ZM12.3964 13.6847H16.2537V13.0138H12.3964V13.6847ZM12.3964 15.4459H16.2537V14.775H12.3964V15.4459Z" fill="white" stroke="white"/>
</svg>
